<svg width="24" height="24" viewBox="0 0 24 24" fill="none" xmlns="http://www.w3.org/2000/svg">
<g clip-path="url(#clip0_587_1130)">
<path d="M12 23.7188C18.4721 23.7188 23.7188 18.4721 23.7188 12C23.7188 5.52791 18.4721 0.28125 12 0.28125C5.52791 0.28125 0.28125 5.52791 0.28125 12C0.28125 18.4721 5.52791 23.7188 12 23.7188Z" fill="#1877F2"/>
<path opacity="0.49" d="M22.6729 16.8453C22.7017 16.7293 22.7498 16.6189 22.8152 16.5188C23.4135 15.0874 23.7206 13.5512 23.7188 11.9998C23.7188 11.916 23.7174 11.8325 23.7156 11.7491L16.1255 4.159C15.4009 4.08213 14.6727 4.04491 13.944 4.04749C11.7852 4.04749 10.3078 5.36468 10.3078 7.78479V9.87171H7.87451V12.7076L10.3078 15.1405V19.9522L13.9172 23.5616C15.8155 23.2459 17.607 22.4682 19.1339 21.297C20.6608 20.1258 21.8761 18.597 22.6729 16.8453Z" fill="url(#paint0_linear_587_1130)"/>
<path d="M13.2349 19.9522V12.7076H15.6771L16.043 9.87171H13.2349V8.06566C13.2349 7.24652 13.4623 6.68838 14.6369 6.68838H16.1255V4.15896C15.4009 4.08213 14.6726 4.04492 13.944 4.04749C11.7852 4.04749 10.3077 5.36467 10.3077 7.78478V9.87171H7.87451V12.7076H10.3078V19.9522H13.2349Z" fill="white"/>
</g>
<defs>
<linearGradient id="paint0_linear_587_1130" x1="8.74296" y1="7.58191" x2="26.5491" y2="25.388" gradientUnits="userSpaceOnUse">
<stop stop-color="#1D1D1B"/>
<stop offset="0.369" stop-color="#1D1D1B" stop-opacity="0.856"/>
<stop offset="0.75" stop-color="#1D1D1B" stop-opacity="0.429"/>
<stop offset="1" stop-color="#1D1D1B" stop-opacity="0"/>
</linearGradient>
<clipPath id="clip0_587_1130">
<rect width="24" height="24" fill="white"/>
</clipPath>
</defs>
</svg>
