<svg width="140" height="140" viewBox="0 0 140 140" fill="none" xmlns="http://www.w3.org/2000/svg">
<rect x="0.5" y="0.5" width="139" height="139" rx="69.5" fill="#FFFBF3"/>
<rect x="0.5" y="0.5" width="139" height="139" rx="69.5" stroke="url(#paint0_linear_2169_8670)"/>
<path d="M82.7162 57.5C85.8757 57.5001 89.1897 59.7741 90.3608 65.2998L92.2836 80.7871C93.6975 90.8839 88.0185 95 80.3959 95H59.6713C52.0266 95 46.1715 92.1574 47.7621 80.7871L49.7065 65.2998C50.7008 59.6148 54.1259 57.5 57.3295 57.5H82.7162ZM62.7426 65.8232C61.5224 65.8232 60.5327 66.8417 60.5327 68.0977C60.5328 69.3535 61.5225 70.3711 62.7426 70.3711C63.9627 70.371 64.9514 69.3534 64.9516 68.0977C64.9516 66.8417 63.9628 65.8233 62.7426 65.8232ZM77.2143 65.8232C75.9942 65.8234 75.0053 66.8418 75.0053 68.0977C75.0055 69.3534 75.9943 70.371 77.2143 70.3711C78.4344 70.3711 79.4241 69.3535 79.4243 68.0977C79.4243 66.8417 78.4346 65.8232 77.2143 65.8232Z" fill="url(#paint1_linear_2169_8670)" fill-opacity="0.5"/>
<path opacity="0.4" d="M82.4347 56.9358C82.4425 57.1297 82.4053 57.3228 82.3258 57.5H78.733C78.6634 57.3199 78.6266 57.1288 78.6242 56.9358C78.6242 52.1421 74.7247 48.256 69.9144 48.256C65.1041 48.256 61.2046 52.1421 61.2046 56.9358C61.2376 57.1224 61.2376 57.3134 61.2046 57.5H57.5247C57.4918 57.3134 57.4918 57.1224 57.5247 56.9358C57.8043 50.2648 63.3125 45 70.0124 45C76.7122 45 82.2204 50.2648 82.5 56.9358H82.4347Z" fill="url(#paint2_linear_2169_8670)" fill-opacity="0.5"/>
<defs>
<linearGradient id="paint0_linear_2169_8670" x1="0" y1="70" x2="140" y2="70" gradientUnits="userSpaceOnUse">
<stop stop-color="#FFB700"/>
<stop offset="1" stop-color="#FF3B00"/>
</linearGradient>
<linearGradient id="paint1_linear_2169_8670" x1="47.5004" y1="76.25" x2="92.5" y2="76.25" gradientUnits="userSpaceOnUse">
<stop stop-color="#FFB700"/>
<stop offset="1" stop-color="#FF3B00"/>
</linearGradient>
<linearGradient id="paint2_linear_2169_8670" x1="57.5" y1="51.25" x2="82.5" y2="51.25" gradientUnits="userSpaceOnUse">
<stop stop-color="#FFB700"/>
<stop offset="1" stop-color="#FF3B00"/>
</linearGradient>
</defs>
</svg>
